<svg width="415" height="37" viewBox="0 0 415 37" fill="none" xmlns="http://www.w3.org/2000/svg">
<path d="M201 17.25H204V19.25H201V17.25Z" fill="black"/>
<path d="M212.45 14.42C210.676 11.5178 208.257 9.06412 205.38 7.25C204.051 6.40764 202.536 5.90344 200.967 5.78142C199.398 5.6594 197.823 5.92328 196.38 6.55C195.118 7.1455 194.019 8.03937 193.179 9.15441C192.339 10.2695 191.784 11.5721 191.56 12.95C191.48 13.42 191.42 13.87 191.36 14.31C190.424 14.4618 189.572 14.9413 188.956 15.6629C188.341 16.3846 188.002 17.3015 188 18.25V24.38C188 24.9104 188.211 25.4191 188.586 25.7942C188.961 26.1693 189.47 26.38 190 26.38V18.25C190 17.7196 190.211 17.2109 190.586 16.8358C190.961 16.4607 191.47 16.25 192 16.25H210.73C212.657 16.2526 214.505 17.0194 215.868 18.3823C217.231 19.7451 217.997 21.5927 218 23.52V24.25H216C215.578 23.2201 214.791 22.3818 213.79 21.895C212.789 21.4082 211.644 21.307 210.573 21.6107C209.502 21.9144 208.58 22.6017 207.984 23.5416C207.387 24.4814 207.158 25.608 207.339 26.7063C207.52 27.8045 208.1 28.7976 208.966 29.4961C209.833 30.1945 210.927 30.5494 212.038 30.493C213.15 30.4365 214.202 29.9728 214.994 29.1902C215.785 28.4076 216.261 27.361 216.33 26.25H218C218.53 26.25 219.039 26.0393 219.414 25.6642C219.789 25.2891 220 24.7804 220 24.25V23.52C219.996 21.3619 219.24 19.2727 217.862 17.6119C216.484 15.951 214.57 14.8223 212.45 14.42ZM197 14.25H192.93C192.93 13.94 193.02 13.62 193.08 13.25C193.253 12.1515 193.704 11.1154 194.39 10.2402C195.076 9.36507 195.974 8.67995 197 8.25V14.25ZM199 14.25V7.83C200.867 7.58756 202.76 7.99732 204.36 8.99C206.544 10.3502 208.428 12.1397 209.9 14.25H199ZM211.8 28.63C211.306 28.63 210.822 28.4834 210.411 28.2087C210 27.934 209.68 27.5435 209.49 27.0867C209.301 26.6299 209.252 26.1272 209.348 25.6423C209.445 25.1573 209.683 24.7119 210.032 24.3622C210.382 24.0126 210.827 23.7745 211.312 23.678C211.797 23.5816 212.3 23.6311 212.757 23.8203C213.214 24.0095 213.604 24.33 213.879 24.7411C214.153 25.1522 214.3 25.6355 214.3 26.13C214.3 26.793 214.037 27.4289 213.568 27.8978C213.099 28.3666 212.463 28.63 211.8 28.63Z" fill="black"/>
<path d="M200.17 24.25C199.748 23.2201 198.961 22.3818 197.96 21.895C196.959 21.4082 195.814 21.307 194.743 21.6107C193.672 21.9144 192.75 22.6017 192.154 23.5416C191.557 24.4814 191.328 25.608 191.509 26.7063C191.69 27.8045 192.27 28.7976 193.136 29.4961C194.003 30.1945 195.097 30.5494 196.208 30.493C197.32 30.4365 198.372 29.9728 199.164 29.1902C199.955 28.4076 200.431 27.361 200.5 26.25H205.8V26C205.78 25.41 205.848 24.8203 206 24.25H200.17ZM196 28.63C195.506 28.63 195.022 28.4834 194.611 28.2087C194.2 27.934 193.88 27.5435 193.69 27.0867C193.501 26.6299 193.452 26.1272 193.548 25.6423C193.645 25.1573 193.883 24.7119 194.232 24.3622C194.582 24.0126 195.027 23.7745 195.512 23.678C195.997 23.5816 196.5 23.6311 196.957 23.8203C197.414 24.0095 197.804 24.33 198.079 24.7411C198.353 25.1522 198.5 25.6355 198.5 26.13C198.5 26.793 198.237 27.4289 197.768 27.8978C197.299 28.3666 196.663 28.63 196 28.63Z" fill="black"/>
<path d="M9.32039 17.7122C8.63374 17.7122 7.97522 17.4498 7.48969 16.9828C7.00416 16.5159 6.73139 15.8825 6.73139 15.2221C6.73139 14.5617 7.00416 13.9284 7.48969 13.4614C7.97522 12.9944 8.63374 12.7321 9.32039 12.7321C10.007 12.7321 10.6656 12.9944 11.1511 13.4614C11.6366 13.9284 11.9094 14.5617 11.9094 15.2221C11.9094 15.5491 11.8424 15.8729 11.7123 16.175C11.5822 16.4771 11.3915 16.7516 11.1511 16.9828C10.9107 17.2141 10.6253 17.3975 10.3112 17.5226C9.99704 17.6477 9.66038 17.7122 9.32039 17.7122ZM9.32039 8.25C7.39778 8.25 5.55392 8.98456 4.19444 10.2921C2.83495 11.5996 2.0712 13.373 2.0712 15.2221C2.0712 20.4512 9.32039 28.1703 9.32039 28.1703C9.32039 28.1703 16.5696 20.4512 16.5696 15.2221C16.5696 13.373 15.8058 11.5996 14.4463 10.2921C13.0869 8.98456 11.243 8.25 9.32039 8.25Z" fill="black"/>
<path d="M0 28.25V27.1743H6.21359V28.25H0Z" fill="black"/>
<path d="M9.73301 28.25V27.1743H15.9466V28.25H9.73301Z" fill="black"/>
<path d="M19.466 28.25V27.1743H25.6796V28.25H19.466Z" fill="black"/>
<path d="M29.199 28.25V27.1743H35.4126V28.25H29.199Z" fill="black"/>
<path d="M38.932 28.25V27.1743H45.1456V28.25H38.932Z" fill="black"/>
<path d="M48.6651 28.25V27.1743H54.8786V28.25H48.6651Z" fill="black"/>
<path d="M58.3981 28.25V27.1743H64.6117V28.25H58.3981Z" fill="black"/>
<path d="M68.1311 28.25V27.1743H74.3447V28.25H68.1311Z" fill="black"/>
<path d="M77.8641 28.25V27.1743H84.0777V28.25H77.8641Z" fill="black"/>
<path d="M87.5971 28.25V27.1743H93.8107V28.25H87.5971Z" fill="black"/>
<path d="M97.3301 28.25V27.1743H103.544V28.25H97.3301Z" fill="black"/>
<path d="M107.063 28.25V27.1743H113.277V28.25H107.063Z" fill="black"/>
<path d="M116.796 28.25V27.1743H123.01V28.25H116.796Z" fill="black"/>
<path d="M126.529 28.25V27.1743H132.743V28.25H126.529Z" fill="black"/>
<path d="M136.262 28.25V27.1743H142.476V28.25H136.262Z" fill="black"/>
<path d="M145.995 28.25V27.1743H152.209V28.25H145.995Z" fill="black"/>
<path d="M155.728 28.25V27.1743H161.942V28.25H155.728Z" fill="black"/>
<path d="M165.461 28.25V27.1743H171.675V28.25H165.461Z" fill="black"/>
<path d="M175.194 28.25V27.1743H181.408V28.25H175.194Z" fill="black"/>
<path d="M184.927 28.25V27.1743H191.141V28.25H184.927Z" fill="black"/>
<path d="M194.66 28.25V27.1743H200.874V28.25H194.66Z" fill="black"/>
<path d="M204.393 28.25V27.1743H210.607V28.25H204.393Z" fill="black"/>
<path d="M214.126 28.25V27.1743H220.34V28.25H214.126Z" fill="black"/>
<path d="M223.859 28.25V27.1743H230.073V28.25H223.859Z" fill="black"/>
<path d="M233.592 28.25V27.1743H239.806V28.25H233.592Z" fill="black"/>
<path d="M243.325 28.25V27.1743H249.539V28.25H243.325Z" fill="black"/>
<path d="M253.058 28.25V27.1743H259.272V28.25H253.058Z" fill="black"/>
<path d="M262.791 28.25V27.1743H269.005V28.25H262.791Z" fill="black"/>
<path d="M272.524 28.25V27.1743H278.738V28.25H272.524Z" fill="black"/>
<path d="M282.257 28.25V27.1743H288.471V28.25H282.257Z" fill="black"/>
<path d="M291.99 28.25V27.1743H298.204V28.25H291.99Z" fill="black"/>
<path d="M301.723 28.25V27.1743H307.937V28.25H301.723Z" fill="black"/>
<path d="M311.456 28.25V27.1743H317.67V28.25H311.456Z" fill="black"/>
<path d="M321.189 28.25V27.1743H327.403V28.25H321.189Z" fill="black"/>
<path d="M330.922 28.25V27.1743H337.136V28.25H330.922Z" fill="black"/>
<path d="M340.655 28.25V27.1743H346.869V28.25H340.655Z" fill="black"/>
<path d="M350.388 28.25V27.1743H356.602V28.25H350.388Z" fill="black"/>
<path d="M360.121 28.25V27.1743H366.335V28.25H360.121Z" fill="black"/>
<path d="M369.854 28.25V27.1743H376.068V28.25H369.854Z" fill="black"/>
<path d="M379.587 28.25V27.1743H385.801V28.25H379.587Z" fill="black"/>
<path d="M389.32 28.25V27.1743H395.534V28.25H389.32Z" fill="black"/>
<path d="M399.053 28.25V27.1743H405.267V28.25H399.053Z" fill="black"/>
<path d="M408.786 28.25V27.1743H415V28.25H408.786Z" fill="black"/>
<path d="M405.955 17.7122C405.268 17.7122 404.61 17.4498 404.124 16.9828C403.638 16.5159 403.366 15.8825 403.366 15.2221C403.366 14.5617 403.638 13.9284 404.124 13.4614C404.61 12.9944 405.268 12.7321 405.955 12.7321C406.641 12.7321 407.3 12.9944 407.785 13.4614C408.271 13.9284 408.544 14.5617 408.544 15.2221C408.544 15.5491 408.477 15.8729 408.347 16.175C408.217 16.4771 408.026 16.7516 407.785 16.9828C407.545 17.2141 407.26 17.3975 406.945 17.5226C406.631 17.6477 406.295 17.7122 405.955 17.7122ZM405.955 8.25C404.032 8.25 402.188 8.98456 400.829 10.2921C399.469 11.5996 398.706 13.373 398.706 15.2221C398.706 20.4512 405.955 28.1703 405.955 28.1703C405.955 28.1703 413.204 20.4512 413.204 15.2221C413.204 13.373 412.44 11.5996 411.081 10.2921C409.721 8.98456 407.877 8.25 405.955 8.25Z" fill="black"/>
</svg>
