<svg width="144" height="24" viewBox="0 0 144 24" fill="none" xmlns="http://www.w3.org/2000/svg">
<path d="M1.97561 0L0 1.17073V18.622L1.97561 19.6951L3.86585 18.622V13.122L4.67073 12.1707H5.53659L4.67073 10.2683L5.53659 8.4878H4.67073L3.86585 7.46341V1.17073L1.97561 0Z" fill="#172554"/>
<path d="M13.2439 0L11.3049 1.17073V8.21951H15.2073V1.17073L13.2439 0Z" fill="#172554"/>
<path d="M19.3781 8.4878H6.07317L5.15854 10.2683L6.07317 12.1707H10.8902L11.5732 13.122V22.7927L13.3902 24L15.2073 22.7927V13.122L15.8902 12.1707H19.3781L20.2561 10.2683L19.3781 8.4878Z" fill="#172554"/>
<path d="M15.2317 13.122L15.9268 12.1707H19.3781L20.3293 10.2683L19.3781 8.42683L6.02439 8.47561L5.15854 10.2683L6.02439 12.1707H10.8902L11.5366 13.122V22.8171L13.3781 24L15.2317 22.8171V13.122Z" fill="#EAB308"/>
<path d="M34.7225 5H37.9625V19H34.7225V5ZM28.3625 19H25.1225V5H28.3625V19ZM34.9625 13.26H28.1225V10.52H34.9625V13.26ZM46.8548 19V16.9L46.6548 16.44V12.68C46.6548 12.0133 46.4482 11.4933 46.0348 11.12C45.6348 10.7467 45.0148 10.56 44.1748 10.56C43.6015 10.56 43.0348 10.6533 42.4748 10.84C41.9282 11.0133 41.4615 11.2533 41.0748 11.56L39.9548 9.38C40.5415 8.96667 41.2482 8.64667 42.0748 8.42C42.9015 8.19333 43.7415 8.08 44.5948 8.08C46.2348 8.08 47.5082 8.46667 48.4148 9.24C49.3215 10.0133 49.7748 11.22 49.7748 12.86V19H46.8548ZM43.5748 19.16C42.7348 19.16 42.0148 19.02 41.4148 18.74C40.8148 18.4467 40.3548 18.0533 40.0348 17.56C39.7148 17.0667 39.5548 16.5133 39.5548 15.9C39.5548 15.26 39.7082 14.7 40.0148 14.22C40.3348 13.74 40.8348 13.3667 41.5148 13.1C42.1948 12.82 43.0815 12.68 44.1748 12.68H47.0348V14.5H44.5148C43.7815 14.5 43.2748 14.62 42.9948 14.86C42.7282 15.1 42.5948 15.4 42.5948 15.76C42.5948 16.16 42.7482 16.48 43.0548 16.72C43.3748 16.9467 43.8082 17.06 44.3548 17.06C44.8748 17.06 45.3415 16.94 45.7548 16.7C46.1682 16.4467 46.4682 16.08 46.6548 15.6L47.1348 17.04C46.9082 17.7333 46.4948 18.26 45.8948 18.62C45.2948 18.98 44.5215 19.16 43.5748 19.16ZM65.5786 8.08C66.4319 8.08 67.1852 8.25333 67.8386 8.6C68.5052 8.93333 69.0252 9.45333 69.3986 10.16C69.7852 10.8533 69.9786 11.7467 69.9786 12.84V19H66.8586V13.32C66.8586 12.4533 66.6786 11.8133 66.3186 11.4C65.9586 10.9867 65.4519 10.78 64.7986 10.78C64.3452 10.78 63.9386 10.8867 63.5786 11.1C63.2186 11.3 62.9386 11.6067 62.7386 12.02C62.5386 12.4333 62.4386 12.96 62.4386 13.6V19H59.3186V13.32C59.3186 12.4533 59.1386 11.8133 58.7786 11.4C58.4319 10.9867 57.9319 10.78 57.2786 10.78C56.8252 10.78 56.4186 10.8867 56.0586 11.1C55.6986 11.3 55.4186 11.6067 55.2186 12.02C55.0186 12.4333 54.9186 12.96 54.9186 13.6V19H51.7986V8.24H54.7786V11.18L54.2186 10.32C54.5919 9.58667 55.1186 9.03333 55.7986 8.66C56.4919 8.27333 57.2786 8.08 58.1586 8.08C59.1452 8.08 60.0052 8.33333 60.7386 8.84C61.4852 9.33333 61.9786 10.0933 62.2186 11.12L61.1186 10.82C61.4786 9.98 62.0519 9.31333 62.8386 8.82C63.6386 8.32667 64.5519 8.08 65.5786 8.08ZM71.9751 19V8.24H74.9551V11.28L74.5351 10.4C74.8551 9.64 75.3685 9.06667 76.0751 8.68C76.7818 8.28 77.6418 8.08 78.6551 8.08V10.96C78.5218 10.9467 78.4018 10.94 78.2951 10.94C78.1885 10.9267 78.0751 10.92 77.9551 10.92C77.1018 10.92 76.4085 11.1667 75.8751 11.66C75.3551 12.14 75.0951 12.8933 75.0951 13.92V19H71.9751ZM84.7522 19.16C83.6055 19.16 82.5855 18.92 81.6922 18.44C80.8122 17.96 80.1122 17.3067 79.5922 16.48C79.0855 15.64 78.8322 14.6867 78.8322 13.62C78.8322 12.54 79.0855 11.5867 79.5922 10.76C80.1122 9.92 80.8122 9.26667 81.6922 8.8C82.5855 8.32 83.6055 8.08 84.7522 8.08C85.8855 8.08 86.8988 8.32 87.7922 8.8C88.6855 9.26667 89.3855 9.91333 89.8922 10.74C90.3988 11.5667 90.6522 12.5267 90.6522 13.62C90.6522 14.6867 90.3988 15.64 89.8922 16.48C89.3855 17.3067 88.6855 17.96 87.7922 18.44C86.8988 18.92 85.8855 19.16 84.7522 19.16ZM84.7522 16.6C85.2722 16.6 85.7388 16.48 86.1522 16.24C86.5655 16 86.8922 15.66 87.1322 15.22C87.3722 14.7667 87.4922 14.2333 87.4922 13.62C87.4922 12.9933 87.3722 12.46 87.1322 12.02C86.8922 11.58 86.5655 11.24 86.1522 11C85.7388 10.76 85.2722 10.64 84.7522 10.64C84.2322 10.64 83.7655 10.76 83.3522 11C82.9388 11.24 82.6055 11.58 82.3522 12.02C82.1122 12.46 81.9922 12.9933 81.9922 13.62C81.9922 14.2333 82.1122 14.7667 82.3522 15.22C82.6055 15.66 82.9388 16 83.3522 16.24C83.7655 16.48 84.2322 16.6 84.7522 16.6ZM98.4776 8.08C99.331 8.08 100.091 8.25333 100.758 8.6C101.438 8.93333 101.971 9.45333 102.358 10.16C102.744 10.8533 102.938 11.7467 102.938 12.84V19H99.8176V13.32C99.8176 12.4533 99.6243 11.8133 99.2376 11.4C98.8643 10.9867 98.331 10.78 97.6376 10.78C97.1443 10.78 96.6976 10.8867 96.2976 11.1C95.911 11.3 95.6043 11.6133 95.3776 12.04C95.1643 12.4667 95.0576 13.0133 95.0576 13.68V19H91.9376V4.16H95.0576V11.22L94.3576 10.32C94.7443 9.6 95.2976 9.04667 96.0176 8.66C96.7376 8.27333 97.5576 8.08 98.4776 8.08Z" fill="#172554"/>
<path d="M108.086 19V7.64H103.606V5H115.806V7.64H111.326V19H108.086ZM122.582 19V16.9L122.382 16.44V12.68C122.382 12.0133 122.176 11.4933 121.762 11.12C121.362 10.7467 120.742 10.56 119.902 10.56C119.329 10.56 118.762 10.6533 118.202 10.84C117.656 11.0133 117.189 11.2533 116.802 11.56L115.682 9.38C116.269 8.96667 116.976 8.64667 117.802 8.42C118.629 8.19333 119.469 8.08 120.322 8.08C121.962 8.08 123.236 8.46667 124.142 9.24C125.049 10.0133 125.502 11.22 125.502 12.86V19H122.582ZM119.302 19.16C118.462 19.16 117.742 19.02 117.142 18.74C116.542 18.4467 116.082 18.0533 115.762 17.56C115.442 17.0667 115.282 16.5133 115.282 15.9C115.282 15.26 115.436 14.7 115.742 14.22C116.062 13.74 116.562 13.3667 117.242 13.1C117.922 12.82 118.809 12.68 119.902 12.68H122.762V14.5H120.242C119.509 14.5 119.002 14.62 118.722 14.86C118.456 15.1 118.322 15.4 118.322 15.76C118.322 16.16 118.476 16.48 118.782 16.72C119.102 16.9467 119.536 17.06 120.082 17.06C120.602 17.06 121.069 16.94 121.482 16.7C121.896 16.4467 122.196 16.08 122.382 15.6L122.862 17.04C122.636 17.7333 122.222 18.26 121.622 18.62C121.022 18.98 120.249 19.16 119.302 19.16ZM126.166 19L130.986 12.68L130.926 14.4L126.306 8.24H129.806L132.726 12.26L131.406 12.3L134.426 8.24H137.746L133.106 14.34V12.66L137.906 19H134.366L131.306 14.72L132.606 14.9L129.566 19H126.166ZM138.62 19V8.24H141.74V19H138.62ZM140.18 6.74C139.607 6.74 139.14 6.57333 138.78 6.24C138.42 5.90667 138.24 5.49333 138.24 5C138.24 4.50667 138.42 4.09333 138.78 3.76C139.14 3.42667 139.607 3.26 140.18 3.26C140.754 3.26 141.22 3.42 141.58 3.74C141.94 4.04667 142.12 4.44667 142.12 4.94C142.12 5.46 141.94 5.89333 141.58 6.24C141.234 6.57333 140.767 6.74 140.18 6.74Z" fill="#EAB308"/>
</svg>
