<svg width="131" height="24" viewBox="0 0 131 24" fill="none" xmlns="http://www.w3.org/2000/svg">
<path d="M1.97561 0L0 1.17073V18.622L1.97561 19.6951L3.86585 18.622V13.122L4.67073 12.1707H5.53659L4.67073 10.2683L5.53659 8.4878H4.67073L3.86585 7.46341V1.17073L1.97561 0Z" fill="#172554"/>
<path d="M13.2439 0L11.3049 1.17073V8.21951H15.2073V1.17073L13.2439 0Z" fill="#172554"/>
<path d="M19.3781 8.4878H6.07317L5.15854 10.2683L6.07317 12.1707H10.8902L11.5732 13.122V22.7927L13.3902 24L15.2073 22.7927V13.122L15.8902 12.1707H19.3781L20.2561 10.2683L19.3781 8.4878Z" fill="#172554"/>
<path d="M15.2317 13.122L15.9268 12.1707H19.3781L20.3293 10.2683L19.3781 8.42683L6.02439 8.47561L5.15854 10.2683L6.02439 12.1707H10.8902L11.5366 13.122V22.8171L13.3781 24L15.2317 22.8171V13.122Z" fill="#EAB308"/>
<path d="M32.7982 6.8H35.3902V18H32.7982V6.8ZM27.7102 18H25.1182V6.8H27.7102V18ZM32.9902 13.408H27.5182V11.216H32.9902V13.408ZM43.1441 18V16.32L42.9841 15.952V12.944C42.9841 12.4107 42.8188 11.9947 42.4881 11.696C42.1681 11.3973 41.6721 11.248 41.0001 11.248C40.5414 11.248 40.0881 11.3227 39.6401 11.472C39.2028 11.6107 38.8294 11.8027 38.5201 12.048L37.6241 10.304C38.0934 9.97333 38.6588 9.71733 39.3201 9.536C39.9814 9.35467 40.6534 9.264 41.3361 9.264C42.6481 9.264 43.6668 9.57333 44.3921 10.192C45.1174 10.8107 45.4801 11.776 45.4801 13.088V18H43.1441ZM40.5201 18.128C39.8481 18.128 39.2721 18.016 38.7921 17.792C38.3121 17.5573 37.9441 17.2427 37.6881 16.848C37.4321 16.4533 37.3041 16.0107 37.3041 15.52C37.3041 15.008 37.4268 14.56 37.6721 14.176C37.9281 13.792 38.3281 13.4933 38.8721 13.28C39.4161 13.056 40.1254 12.944 41.0001 12.944H43.2881V14.4H41.2721C40.6854 14.4 40.2801 14.496 40.0561 14.688C39.8428 14.88 39.7361 15.12 39.7361 15.408C39.7361 15.728 39.8588 15.984 40.1041 16.176C40.3601 16.3573 40.7068 16.448 41.1441 16.448C41.5601 16.448 41.9334 16.352 42.2641 16.16C42.5948 15.9573 42.8348 15.664 42.9841 15.28L43.3681 16.432C43.1868 16.9867 42.8561 17.408 42.3761 17.696C41.8961 17.984 41.2774 18.128 40.5201 18.128ZM58.7631 9.264C59.4458 9.264 60.0484 9.40267 60.5711 9.68C61.1044 9.94667 61.5204 10.3627 61.8191 10.928C62.1284 11.4827 62.2831 12.1973 62.2831 13.072V18H59.7871V13.456C59.7871 12.7627 59.6431 12.2507 59.3551 11.92C59.0671 11.5893 58.6618 11.424 58.1391 11.424C57.7764 11.424 57.4511 11.5093 57.1631 11.68C56.8751 11.84 56.6511 12.0853 56.4911 12.416C56.3311 12.7467 56.2511 13.168 56.2511 13.68V18H53.7551V13.456C53.7551 12.7627 53.6111 12.2507 53.3231 11.92C53.0458 11.5893 52.6458 11.424 52.1231 11.424C51.7604 11.424 51.4351 11.5093 51.1471 11.68C50.8591 11.84 50.6351 12.0853 50.4751 12.416C50.3151 12.7467 50.2351 13.168 50.2351 13.68V18H47.7391V9.392H50.1231V11.744L49.6751 11.056C49.9738 10.4693 50.3951 10.0267 50.9391 9.728C51.4938 9.41867 52.1231 9.264 52.8271 9.264C53.6164 9.264 54.3044 9.46667 54.8911 9.872C55.4884 10.2667 55.8831 10.8747 56.0751 11.696L55.1951 11.456C55.4831 10.784 55.9418 10.2507 56.5711 9.856C57.2111 9.46133 57.9418 9.264 58.7631 9.264ZM64.5203 18V9.392H66.9043V11.824L66.5683 11.12C66.8243 10.512 67.235 10.0533 67.8003 9.744C68.3657 9.424 69.0537 9.264 69.8643 9.264V11.568C69.7577 11.5573 69.6617 11.552 69.5763 11.552C69.491 11.5413 69.4003 11.536 69.3043 11.536C68.6217 11.536 68.067 11.7333 67.6403 12.128C67.2243 12.512 67.0163 13.1147 67.0163 13.936V18H64.5203ZM75.382 18.128C74.4646 18.128 73.6486 17.936 72.934 17.552C72.23 17.168 71.67 16.6453 71.254 15.984C70.8486 15.312 70.646 14.5493 70.646 13.696C70.646 12.832 70.8486 12.0693 71.254 11.408C71.67 10.736 72.23 10.2133 72.934 9.84C73.6486 9.456 74.4646 9.264 75.382 9.264C76.2886 9.264 77.0993 9.456 77.814 9.84C78.5286 10.2133 79.0886 10.7307 79.494 11.392C79.8993 12.0533 80.102 12.8213 80.102 13.696C80.102 14.5493 79.8993 15.312 79.494 15.984C79.0886 16.6453 78.5286 17.168 77.814 17.552C77.0993 17.936 76.2886 18.128 75.382 18.128ZM75.382 16.08C75.798 16.08 76.1713 15.984 76.502 15.792C76.8326 15.6 77.094 15.328 77.286 14.976C77.478 14.6133 77.574 14.1867 77.574 13.696C77.574 13.1947 77.478 12.768 77.286 12.416C77.094 12.064 76.8326 11.792 76.502 11.6C76.1713 11.408 75.798 11.312 75.382 11.312C74.966 11.312 74.5926 11.408 74.262 11.6C73.9313 11.792 73.6646 12.064 73.462 12.416C73.27 12.768 73.174 13.1947 73.174 13.696C73.174 14.1867 73.27 14.6133 73.462 14.976C73.6646 15.328 73.9313 15.6 74.262 15.792C74.5926 15.984 74.966 16.08 75.382 16.08ZM87.0023 9.264C87.685 9.264 88.293 9.40267 88.8263 9.68C89.3703 9.94667 89.797 10.3627 90.1063 10.928C90.4157 11.4827 90.5703 12.1973 90.5703 13.072V18H88.0743V13.456C88.0743 12.7627 87.9197 12.2507 87.6103 11.92C87.3117 11.5893 86.885 11.424 86.3303 11.424C85.9357 11.424 85.5783 11.5093 85.2583 11.68C84.949 11.84 84.7037 12.0907 84.5223 12.432C84.3517 12.7733 84.2663 13.2107 84.2663 13.744V18H81.7703V6.128H84.2663V11.776L83.7063 11.056C84.0157 10.48 84.4583 10.0373 85.0343 9.728C85.6103 9.41867 86.2663 9.264 87.0023 9.264Z" fill="#172554"/>
<path d="M99.8601 18V8.912H96.2761V6.8H106.036V8.912H102.452V18H99.8601ZM112.097 18V16.32L111.937 15.952V12.944C111.937 12.4107 111.772 11.9947 111.441 11.696C111.121 11.3973 110.625 11.248 109.953 11.248C109.495 11.248 109.041 11.3227 108.593 11.472C108.156 11.6107 107.783 11.8027 107.473 12.048L106.577 10.304C107.047 9.97333 107.612 9.71733 108.273 9.536C108.935 9.35467 109.607 9.264 110.289 9.264C111.601 9.264 112.62 9.57333 113.345 10.192C114.071 10.8107 114.433 11.776 114.433 13.088V18H112.097ZM109.473 18.128C108.801 18.128 108.225 18.016 107.745 17.792C107.265 17.5573 106.897 17.2427 106.641 16.848C106.385 16.4533 106.257 16.0107 106.257 15.52C106.257 15.008 106.38 14.56 106.625 14.176C106.881 13.792 107.281 13.4933 107.825 13.28C108.369 13.056 109.079 12.944 109.953 12.944H112.241V14.4H110.225C109.639 14.4 109.233 14.496 109.009 14.688C108.796 14.88 108.689 15.12 108.689 15.408C108.689 15.728 108.812 15.984 109.057 16.176C109.313 16.3573 109.66 16.448 110.097 16.448C110.513 16.448 110.887 16.352 111.217 16.16C111.548 15.9573 111.788 15.664 111.937 15.28L112.321 16.432C112.14 16.9867 111.809 17.408 111.329 17.696C110.849 17.984 110.231 18.128 109.473 18.128ZM115.604 18L119.46 12.944L119.412 14.32L115.716 9.392H118.516L120.852 12.608L119.796 12.64L122.212 9.392H124.868L121.156 14.272V12.928L124.996 18H122.164L119.716 14.576L120.756 14.72L118.324 18H115.604ZM126.208 18V9.392H128.704V18H126.208ZM127.456 8.192C126.997 8.192 126.624 8.05867 126.336 7.792C126.048 7.52533 125.904 7.19467 125.904 6.8C125.904 6.40533 126.048 6.07467 126.336 5.808C126.624 5.54133 126.997 5.408 127.456 5.408C127.915 5.408 128.288 5.536 128.576 5.792C128.864 6.03733 129.008 6.35733 129.008 6.752C129.008 7.168 128.864 7.51467 128.576 7.792C128.299 8.05867 127.925 8.192 127.456 8.192Z" fill="#EAB308"/>
</svg>
