<svg width="117" height="24" viewBox="0 0 117 24" fill="none" xmlns="http://www.w3.org/2000/svg">
<path d="M1.97561 0L0 1.17073V18.622L1.97561 19.6951L3.86585 18.622V13.122L4.67073 12.1707H5.53659L4.67073 10.2683L5.53659 8.4878H4.67073L3.86585 7.46341V1.17073L1.97561 0Z" fill="#172554"/>
<path d="M13.2439 0L11.3049 1.17073V8.21951H15.2073V1.17073L13.2439 0Z" fill="#172554"/>
<path d="M19.3781 8.4878H6.07317L5.15854 10.2683L6.07317 12.1707H10.8902L11.5732 13.122V22.7927L13.3902 24L15.2073 22.7927V13.122L15.8902 12.1707H19.3781L20.2561 10.2683L19.3781 8.4878Z" fill="#172554"/>
<path d="M15.2317 13.122L15.9268 12.1707H19.3781L20.3293 10.2683L19.3781 8.42683L6.02439 8.47561L5.15854 10.2683L6.02439 12.1707H10.8902L11.5366 13.122V22.8171L13.3781 24L15.2317 22.8171V13.122Z" fill="#EAB308"/>
<path d="M31.3021 7.2H33.5701V17H31.3021V7.2ZM26.8501 17H24.5821V7.2H26.8501V17ZM31.4701 12.982H26.6821V11.064H31.4701V12.982ZM40.3547 17V15.53L40.2147 15.208V12.576C40.2147 12.1093 40.0701 11.7453 39.7807 11.484C39.5007 11.2227 39.0667 11.092 38.4787 11.092C38.0774 11.092 37.6807 11.1573 37.2887 11.288C36.9061 11.4093 36.5794 11.5773 36.3087 11.792L35.5247 10.266C35.9354 9.97667 36.4301 9.75267 37.0087 9.594C37.5874 9.43533 38.1754 9.356 38.7727 9.356C39.9207 9.356 40.8121 9.62667 41.4467 10.168C42.0814 10.7093 42.3987 11.554 42.3987 12.702V17H40.3547ZM38.0587 17.112C37.4707 17.112 36.9667 17.014 36.5467 16.818C36.1267 16.6127 35.8047 16.3373 35.5807 15.992C35.3567 15.6467 35.2447 15.2593 35.2447 14.83C35.2447 14.382 35.3521 13.99 35.5667 13.654C35.7907 13.318 36.1407 13.0567 36.6167 12.87C37.0927 12.674 37.7134 12.576 38.4787 12.576H40.4807V13.85H38.7167C38.2034 13.85 37.8487 13.934 37.6527 14.102C37.4661 14.27 37.3727 14.48 37.3727 14.732C37.3727 15.012 37.4801 15.236 37.6947 15.404C37.9187 15.5627 38.2221 15.642 38.6047 15.642C38.9687 15.642 39.2954 15.558 39.5847 15.39C39.8741 15.2127 40.0841 14.956 40.2147 14.62L40.5507 15.628C40.3921 16.1133 40.1027 16.482 39.6827 16.734C39.2627 16.986 38.7214 17.112 38.0587 17.112ZM54.0214 9.356C54.6187 9.356 55.146 9.47733 55.6034 9.72C56.07 9.95333 56.434 10.3173 56.6954 10.812C56.966 11.2973 57.1014 11.9227 57.1014 12.688V17H54.9174V13.024C54.9174 12.4173 54.7914 11.9693 54.5394 11.68C54.2874 11.3907 53.9327 11.246 53.4754 11.246C53.158 11.246 52.8734 11.3207 52.6214 11.47C52.3694 11.61 52.1734 11.8247 52.0334 12.114C51.8934 12.4033 51.8234 12.772 51.8234 13.22V17H49.6394V13.024C49.6394 12.4173 49.5134 11.9693 49.2614 11.68C49.0187 11.3907 48.6687 11.246 48.2114 11.246C47.894 11.246 47.6094 11.3207 47.3574 11.47C47.1054 11.61 46.9094 11.8247 46.7694 12.114C46.6294 12.4033 46.5594 12.772 46.5594 13.22V17H44.3754V9.468H46.4614V11.526L46.0694 10.924C46.3307 10.4107 46.6994 10.0233 47.1754 9.762C47.6607 9.49133 48.2114 9.356 48.8274 9.356C49.518 9.356 50.12 9.53333 50.6334 9.888C51.156 10.2333 51.5014 10.7653 51.6694 11.484L50.8994 11.274C51.1514 10.686 51.5527 10.2193 52.1034 9.874C52.6634 9.52867 53.3027 9.356 54.0214 9.356ZM59.059 17V9.468H61.145V11.596L60.851 10.98C61.075 10.448 61.4343 10.0467 61.929 9.776C62.4236 9.496 63.0256 9.356 63.735 9.356V11.372C63.6416 11.3627 63.5576 11.358 63.483 11.358C63.4083 11.3487 63.329 11.344 63.245 11.344C62.6476 11.344 62.1623 11.5167 61.789 11.862C61.425 12.198 61.243 12.7253 61.243 13.444V17H59.059ZM68.5629 17.112C67.7602 17.112 67.0462 16.944 66.4209 16.608C65.8049 16.272 65.3149 15.8147 64.9509 15.236C64.5962 14.648 64.4189 13.9807 64.4189 13.234C64.4189 12.478 64.5962 11.8107 64.9509 11.232C65.3149 10.644 65.8049 10.1867 66.4209 9.86C67.0462 9.524 67.7602 9.356 68.5629 9.356C69.3562 9.356 70.0656 9.524 70.6909 9.86C71.3162 10.1867 71.8062 10.6393 72.1609 11.218C72.5156 11.7967 72.6929 12.4687 72.6929 13.234C72.6929 13.9807 72.5156 14.648 72.1609 15.236C71.8062 15.8147 71.3162 16.272 70.6909 16.608C70.0656 16.944 69.3562 17.112 68.5629 17.112ZM68.5629 15.32C68.9269 15.32 69.2536 15.236 69.5429 15.068C69.8322 14.9 70.0609 14.662 70.2289 14.354C70.3969 14.0367 70.4809 13.6633 70.4809 13.234C70.4809 12.7953 70.3969 12.422 70.2289 12.114C70.0609 11.806 69.8322 11.568 69.5429 11.4C69.2536 11.232 68.9269 11.148 68.5629 11.148C68.1989 11.148 67.8722 11.232 67.5829 11.4C67.2936 11.568 67.0602 11.806 66.8829 12.114C66.7149 12.422 66.6309 12.7953 66.6309 13.234C66.6309 13.6633 66.7149 14.0367 66.8829 14.354C67.0602 14.662 67.2936 14.9 67.5829 15.068C67.8722 15.236 68.1989 15.32 68.5629 15.32ZM78.7307 9.356C79.328 9.356 79.86 9.47733 80.3267 9.72C80.8027 9.95333 81.176 10.3173 81.4467 10.812C81.7174 11.2973 81.8527 11.9227 81.8527 12.688V17H79.6687V13.024C79.6687 12.4173 79.5334 11.9693 79.2627 11.68C79.0014 11.3907 78.628 11.246 78.1427 11.246C77.7974 11.246 77.4847 11.3207 77.2047 11.47C76.934 11.61 76.7194 11.8293 76.5607 12.128C76.4114 12.4267 76.3367 12.8093 76.3367 13.276V17H74.1527V6.612H76.3367V11.554L75.8467 10.924C76.1174 10.42 76.5047 10.0327 77.0087 9.762C77.5127 9.49133 78.0867 9.356 78.7307 9.356Z" fill="#172554"/>
<path d="M89.9812 17V9.048H86.8452V7.2H95.3852V9.048H92.2492V17H89.9812ZM100.689 17V15.53L100.549 15.208V12.576C100.549 12.1093 100.404 11.7453 100.115 11.484C99.8347 11.2227 99.4007 11.092 98.8127 11.092C98.4114 11.092 98.0147 11.1573 97.6227 11.288C97.2401 11.4093 96.9134 11.5773 96.6427 11.792L95.8587 10.266C96.2694 9.97667 96.7641 9.75267 97.3427 9.594C97.9214 9.43533 98.5094 9.356 99.1067 9.356C100.255 9.356 101.146 9.62667 101.781 10.168C102.415 10.7093 102.733 11.554 102.733 12.702V17H100.689ZM98.3927 17.112C97.8047 17.112 97.3007 17.014 96.8807 16.818C96.4607 16.6127 96.1387 16.3373 95.9147 15.992C95.6907 15.6467 95.5787 15.2593 95.5787 14.83C95.5787 14.382 95.6861 13.99 95.9007 13.654C96.1247 13.318 96.4747 13.0567 96.9507 12.87C97.4267 12.674 98.0474 12.576 98.8127 12.576H100.815V13.85H99.0507C98.5374 13.85 98.1827 13.934 97.9867 14.102C97.8001 14.27 97.7067 14.48 97.7067 14.732C97.7067 15.012 97.8141 15.236 98.0287 15.404C98.2527 15.5627 98.5561 15.642 98.9387 15.642C99.3027 15.642 99.6294 15.558 99.9187 15.39C100.208 15.2127 100.418 14.956 100.549 14.62L100.885 15.628C100.726 16.1133 100.437 16.482 100.017 16.734C99.5967 16.986 99.0554 17.112 98.3927 17.112ZM103.757 17L107.131 12.576L107.089 13.78L103.855 9.468H106.305L108.349 12.282L107.425 12.31L109.539 9.468H111.863L108.615 13.738V12.562L111.975 17H109.497L107.355 14.004L108.265 14.13L106.137 17H103.757ZM113.036 17V9.468H115.22V17H113.036ZM114.128 8.418C113.726 8.418 113.4 8.30133 113.148 8.068C112.896 7.83467 112.77 7.54533 112.77 7.2C112.77 6.85467 112.896 6.56533 113.148 6.332C113.4 6.09867 113.726 5.982 114.128 5.982C114.529 5.982 114.856 6.094 115.108 6.318C115.36 6.53267 115.486 6.81267 115.486 7.158C115.486 7.522 115.36 7.82533 115.108 8.068C114.865 8.30133 114.538 8.418 114.128 8.418Z" fill="#EAB308"/>
</svg>
